<svg width="18" height="16" viewBox="0 0 18 16" fill="none" xmlns="http://www.w3.org/2000/svg">
<path fill-rule="evenodd" clip-rule="evenodd" d="M1.91593 1.96157C0.130733 3.78925 0 3.93524 0 4.10103C0 4.26681 0.130733 4.41281 1.91593 6.24048C3.65848 8.02458 3.84669 8.20205 3.9961 8.20205C4.21601 8.20205 4.40617 8.00792 4.40617 7.78339C4.40617 7.63283 4.25721 7.46361 2.89265 6.06378L1.37913 4.51113H6.86962C10.5348 4.51113 12.4896 4.52958 12.7497 4.5666C14.9742 4.8834 16.7865 6.70774 17.1504 8.99663C17.6106 11.8915 15.6807 14.6254 12.843 15.0983C12.4876 15.1575 11.8282 15.1734 9.72387 15.1736L7.05533 15.1738L6.93246 15.2996C6.76863 15.4674 6.76983 15.7016 6.93537 15.8712L7.06119 16L9.97713 15.9795C12.4864 15.9618 12.9419 15.9469 13.2436 15.8729C13.8339 15.7281 14.2232 15.5822 14.7428 15.3112C16.3681 14.4636 17.5154 12.9259 17.9051 11.0728C18.0195 10.5289 18.0334 9.27052 17.9308 8.74031C17.688 7.48545 17.1239 6.39873 16.2522 5.50619C15.4292 4.66358 14.491 4.12743 13.3187 3.82969C12.9003 3.72348 12.7949 3.72137 7.1377 3.70461L1.38234 3.68759L2.89425 2.13663C3.94473 1.05899 4.40617 0.551742 4.40617 0.474643C4.40617 0.20459 4.20584 0 3.94137 0C3.86396 0 3.26978 0.575425 1.91593 1.96157Z" fill="black"/>
</svg>
