<svg width="32" height="32" viewBox="0 0 32 32" fill="none" xmlns="http://www.w3.org/2000/svg">
<path fill-rule="evenodd" clip-rule="evenodd" d="M14.5648 0.037865C11.4726 0.340606 8.61475 1.47977 6.10901 3.40833C4.88878 4.34748 3.30412 6.11246 2.38836 7.55224C1.99287 8.17406 1.22299 9.74974 0.947201 10.5017C0.638837 11.3426 0.31018 12.6275 0.14845 13.6246C-0.0494834 14.8449 -0.0494834 17.1619 0.14845 18.3823C0.428314 20.1075 0.871034 21.5021 1.62882 23.0461C2.45676 24.7329 3.31765 25.9286 4.69623 27.3065C6.07487 28.6842 7.27125 29.5446 8.95901 30.3721C10.5039 31.1295 11.8993 31.5719 13.6255 31.8516C14.8465 32.0495 17.1649 32.0495 18.3859 31.8516C20.1121 31.5719 21.5075 31.1295 23.0524 30.3721C24.7402 29.5446 25.9365 28.6842 27.3152 27.3065C28.6938 25.9286 29.5546 24.7329 30.3826 23.0461C30.9325 21.9257 31.2091 21.1914 31.5054 20.0653C31.8999 18.5658 32 17.7438 32 16.0034C32 14.2631 31.8999 13.4411 31.5054 11.9415C31.2091 10.8155 30.9325 10.0812 30.3826 8.96077C29.5546 7.27397 28.6938 6.07828 27.3152 4.70042C25.9365 3.32263 24.7402 2.46223 23.0524 1.63477C21.509 0.878102 20.086 0.426683 18.4172 0.16432C17.4965 0.0195853 15.4406 -0.0478991 14.5648 0.037865ZM16.6891 1.59764L17.1533 1.63639L16.6265 1.84761C16.0252 2.08869 14.9138 2.6814 14.3514 3.06089C10.629 5.57284 8.34297 9.96822 8.12399 15.0342C8.02321 17.3661 8.27263 19.4242 8.89919 21.4314C9.88178 24.5788 11.8023 27.2258 14.3514 28.946C14.9127 29.3247 16.0244 29.9178 16.6257 30.1593L17.1516 30.3705L16.563 30.4181C15.8336 30.4772 14.3859 30.3826 13.4595 30.2155C8.42139 29.3066 4.25839 25.8157 2.44617 20.9799C1.8607 19.4177 1.57996 17.8047 1.57996 16.0034C1.57996 14.6013 1.68538 13.7304 2.00915 12.4575C3.18034 7.85316 6.52455 4.13626 11.0041 2.4601C12.7992 1.78845 14.9915 1.45585 16.6891 1.59764Z" fill="#B6B6B6"/>
</svg>
