<svg width="28" height="26" viewBox="0 0 28 26" fill="none" xmlns="http://www.w3.org/2000/svg">
<path fill-rule="evenodd" clip-rule="evenodd" d="M14.0186 0.0978167C13.6981 0.308671 1.91268 12.3029 1.60512 12.7313C0.820331 13.8242 0.363625 14.8927 0.102283 16.2473C-0.034767 16.9575 -0.0339457 18.4366 0.103871 19.182C0.73026 22.5699 3.24469 25.1675 6.59937 25.8922C7.26442 26.0359 9.16396 26.036 9.82988 25.8924C10.9497 25.6509 12.1003 25.1454 13.0222 24.4899C13.3598 24.2498 15.1149 22.5099 20.1053 17.4681C25.896 11.6178 26.7783 10.7048 27.0445 10.2879C27.5265 9.53272 27.7809 8.86417 27.9305 7.95934C28.1572 6.58829 27.8212 5.02792 27.0421 3.83351C26.5585 3.0923 25.6028 2.23964 24.8052 1.83786C22.8886 0.872519 20.5155 1.08758 18.8145 2.38084C18.2394 2.81799 5.56709 15.6666 5.37791 16.0043C5.29923 16.1446 5.16941 16.4561 5.0893 16.6964C4.90741 17.2423 4.88425 18.0471 5.03537 18.5729C5.54431 20.344 7.29585 21.3763 9.03068 20.9276C9.93791 20.6929 9.5601 21.0399 16.1418 14.3964C20.9532 9.53987 22.1647 8.28886 22.2129 8.1269C22.395 7.51654 21.8305 6.9131 21.2336 7.07982C21.0669 7.12634 19.9881 8.18969 15.1157 13.1098C10.3614 17.9108 9.14643 19.1093 8.92643 19.2158C8.54354 19.4009 7.88829 19.4038 7.52324 19.2219C7.02339 18.9729 6.66278 18.4708 6.57271 17.8986C6.52431 17.5908 6.6636 17.0526 6.86855 16.756C6.95665 16.6285 9.88272 13.6456 13.3709 10.1273C20.2222 3.21684 19.949 3.47143 20.875 3.13367C22.9372 2.38139 25.2389 3.44463 26.074 5.53529C26.5841 6.81238 26.383 8.41223 25.5738 9.51384C25.4708 9.6541 22.4468 12.7373 18.8538 16.3653C11.8988 23.3882 12.015 23.2788 11.0114 23.7544C10.0406 24.2145 9.12711 24.3888 7.92076 24.3444C6.63464 24.297 5.61089 23.9623 4.5347 23.2375C3.94576 22.8409 3.15429 22.0583 2.78513 21.5076C1.48505 19.5683 1.26576 17.148 2.19384 14.9813C2.29645 14.7417 2.54493 14.2932 2.74604 13.9846C3.08081 13.4707 3.618 12.9101 9.1201 7.33254C12.4248 3.98257 15.156 1.18725 15.1896 1.12075C15.3339 0.834479 15.2341 0.430212 14.9538 0.165425C14.7556 -0.0218963 14.2554 -0.0580539 14.0186 0.0978167Z" fill="black"/>
</svg>
